<?xml version="1.0" encoding="utf-8"?>
<!-- Generator: Adobe Illustrator 22.0.1, SVG Export Plug-In . SVG Version: 6.00 Build 0)  -->
<svg version="1.1" id="Layer_1" xmlns="http://www.w3.org/2000/svg" xmlns:xlink="http://www.w3.org/1999/xlink" x="0px" y="0px"
	 width="2550.9px" height="559.2px" viewBox="0 0 2550.9 559.2" style="enable-background:new 0 0 2550.9 559.2;"
	 xml:space="preserve">
<style type="text/css">
	.st0{fill:#E5007E;}
	.st1{fill:#1D1D1B;}
	.st2{fill:#FFFFFF;}
</style>
<g>
	<circle class="st0" cx="2314.9" cy="315.4" r="236"/>
	<path class="st1" d="M118.5,11.2c20.4-7.4,42-10.4,63.6-11.2c13.1,0,26.3,0,39.4,0c0,35.8,0,71.6,0,107.4c-6.8,0-13.6-0.2-20.4,0.7
		c-1.1,0.2-2.3,0.4-3.4,0.5c-8.8,1.5-17.7,5.2-23.1,12.7c-3.9,5.5-5.8,12.2-6.2,18.9c-0.6,8.8-0.3,17.6-0.2,26.4
		c17.8,0.3,35.6,0,53.3,0.1c0,21.9-0.1,43.8,0.1,65.8c28.9-39.3,74.2-66.7,122.9-71.9c2.2-0.3,4.5-0.4,6.7-0.8
		c11.5,0,23-0.8,34.5,0.8c19,2.2,37.9,7.8,53.9,18.5c14.4,9.3,26.1,22.4,34.5,37.3c0.1-16.5,0-33.1,0.1-49.6c39.9,0,79.9,0,119.8,0
		c0,19.1,0,38.1,0,57.2c7.6-16.4,19.5-30.6,34-41.2c23-16.8,51.7-24,79.9-25.2c11,0.2,22.1-0.5,33,0.9c24.7,2.4,49.5,9.6,70.1,23.9
		c12.4,8.4,23.1,19.4,30.8,32.2c0-69.9,0-139.8,0-209.7c41.6,0,83.1,0,124.7,0c0,73.4,0,146.8,0,220.1c8.4-12.9,17.9-25.5,29.8-35.4
		c19.4-17.1,44.6-27.3,70.4-28.9c7.6-0.6,15.3-0.6,22.9,0c24.6,1.6,49.1,10.8,67,28.1c4.6,4.4,8.5,9.5,12.2,14.6
		c0-12.2,0-24.3,0-36.5c28.8,0,57.6,0,86.3,0c4.5,0,9.1-0.1,13.6,0.3c-27.6,6.3-55.1,13.3-82.6,19.8c0,6.8,0,13.5,0,20.3
		c17.1,4,34,8.9,51.3,12c-17.1,3.9-34.2,8.1-51.3,12.5c0,6.7,0,13.5,0,20.3c30.8,7.2,61.6,14.8,92.3,22.2c-0.1-7.3,0-14.7,0-22
		c-13.1-2.7-26.1-5.5-39.2-8.2c-5.9-1.3-11.8-2.6-17.8-3.1c19.1-3.9,38-8.5,57-12.6c-0.1-5.8,0-11.6,0-17.5
		c-18.9-4.4-37.9-8.6-56.8-12.7c19-3.3,37.9-7.7,56.8-11.3c0-6.6,0-13.2,0-19.8c5,0,10.1,0,15.1,0c0,32.5,0,65.1,0,97.6
		c9.2-19.2,21.2-37,36.3-52.1c16.3-15.9,35.4-28.9,56.3-37.7c28.4-12.2,59.6-17.7,90.4-16.9c7.4-0.1,14.8,0,22.2,0.9
		c43.1,4,85.7,21.1,117.2,51.3c13,12.3,24.1,26.6,32.9,42.2c-0.1-28.4,0-56.8,0-85.2c39.8,0,79.5,0,119.3,0c0,19.4,0,38.7,0,58.1
		c10.1-15.4,22.7-29.2,37.4-40.3c14.9-11.1,32.3-18.5,50.5-21.9c15-2.5,30.2-3,45.3-1.6c19.8,2.3,39.4,9,55,21.6
		c18.7,14.5,30.6,36.3,36.4,59c3.7,14.7,5.6,29.9,5.3,45.1c0,87.6,0,175.2,0,262.9c-41.6,0-83.1,0-124.7,0c0-74.7,0-149.4,0-224.1
		c0.3-11.4-0.9-23-4.7-33.8c-2.8-8.3-8.1-15.9-15.7-20.6c-10-6.4-22.4-7.2-34-6.4c-10,1.2-20.1,4.9-27,12.4
		c-12.1,11.6-16.1,28.8-17.8,44.8c-1,13.1-0.6,26.2-0.6,39.2c0,62.8,0,125.6,0,188.4c-41.6,0-83.1,0-124.7,0
		c0-28.4-0.1-56.7,0.1-85.1c-11,19.2-25.3,36.5-42.5,50.5c-28.7,23.6-64.6,37.6-101.3,42c-1,0.1-2,0.2-3,0.3
		c-2.3,0.3-4.5,0.4-6.7,0.8c-16.2,1.1-32.4,1.1-48.5-0.8c-42.1-4.4-83.6-21.4-114.3-51c-16.3-15.2-29-34-38.8-54
		c-0.2,32.4,0,64.8-0.1,97.2c-14.8,0-29.5-0.1-44.2,0c9.6-2.9,18.2-9,23.5-17.6c4.3-7.2,5.2-15.7,5.7-23.9c0-9.2,0-18.4,0-27.6
		c-23.6,0-47.2,0-70.7,0c0-8.3,0-16.6,0-24.8c23.6,0,47.2,0,70.7,0c0-7.2,0-14.4,0-21.6c-30.8,0-61.5,0-92.3,0c0,25.4,0,50.7,0,76.1
		c0,8.5,1.8,17.3,7,24.2c5.2,7.7,13.7,12.6,22.4,15.3c-49.7-0.2-99.5,0-149.2-0.1c0-77.6,0-155.1,0-232.7
		c-0.8-13.8-3.4-28.4-12.6-39.2c-8.6-9.9-22.2-13.6-34.9-13.1c-13.5-0.5-27.8,4.1-36.7,14.6c-8.9,10.4-12.6,24-14.3,37.3
		c-1.8,17-1.3,34.1-1.3,51.2c0,60.6,0,121.3,0,181.9c-41.6,0-83.1,0-124.7,0c0-13.3,0-26.5,0-39.8c-9.9,12.9-22.9,23.4-37.3,30.9
		c-17.7,9.3-37.3,14.4-57.1,16.6c-4.3,0.5-8.6,0.9-12.9,1.1c-15.5,1-31.1,0.3-46.5-1.4c-20.3-2.7-40.6-8-58.4-18.4
		c-14.4-8.1-26.6-19.8-35.7-33.6c0.2,14.9,0,29.7,0.1,44.6c-41.2,0-82.4,0-123.6,0c-0.1-17.1,0.2-34.3-0.1-51.4
		c-5.7,14.7-15.7,27.9-28.5,37.1c-15.4,11.2-34.1,17.3-52.9,19.5c-12.6,1.5-25.2,1.6-37.8,0.4c-41.6-3.7-81.3-23-110.4-52.7
		c-32.6-32.5-50.3-77.8-53.8-123.4c-1.5-16.5-1.1-33.2,0.3-49.7c0.3-2.2,0.4-4.5,0.7-6.7c2.3-19.2,6.9-38.2,14.4-56
		c-11.4-0.1-22.8,0-34.2,0c0,94.3,0,188.6,0,282.9c-41.6,0-83.1,0-124.7,0c0-94.3,0-188.6,0-282.9c-14.6,0-29.2,0-43.7,0
		c0-33.3,0-66.6,0-99.9c14.5,0,29,0,43.6,0c0.4-16.6,0.1-33.1,0.2-49.7c0.9-24.7,7.5-49.9,22.9-69.5C79.3,30.4,98.4,18.5,118.5,11.2
		 M691.1,249c-7.9,8.4-8.4,22.4-1.9,31.8c6.1,8.5,16.1,12.6,25.4,16.5c20.9,8,42.3,14.6,63,23.4c19.2,8.2,38.2,17.6,54.3,31.1
		c3.4,3.2,7.2,6,9.9,9.8c0-28.9,0-57.8,0-86.7c-28.1,0-56.1,0-84.2,0c-1-9.5-3.4-19.5-10.1-26.7c-6.8-7.7-17.6-10.5-27.6-10.1
		C709.5,238.3,698.3,241,691.1,249 M383.5,255c-1.1,0.2-2.3,0.4-3.4,0.5c-14.4,2.7-28,9.9-38.2,20.5c-16.8,16.2-25.5,39.2-28.6,62
		c-1.3,9.6-1.4,19.3-1.1,28.9c0.6,4.7,1,9.5,1.7,14.2c3.1,17.7,9.4,35.2,20.4,49.5c11.6,15.4,28.8,26.7,48,29.7
		c23.7,3.8,48.2-6.3,64-24c15.3-16.6,23.8-38.6,26.6-60.8c0.1-1,0.2-2,0.3-3c1.5-12.7,0.9-25.5-1.1-38c-0.1-0.5-0.2-1.4-0.2-1.9
		c-3.4-16.8-9.4-33.3-20-46.9c-11.4-15.2-27.9-26.8-46.8-30.3c-1.1-0.2-2.3-0.3-3.4-0.5C395.7,254.1,389.6,254.1,383.5,255
		 M1431.4,278.2c-16.7,14.1-25.4,35.4-29.2,56.5c-0.7,4.7-1.1,9.5-1.7,14.2c-0.2,6.4-0.2,12.7,0,19.1c0.6,4.7,1,9.5,1.7,14.2
		c3.3,19.2,10.6,38.5,24.9,52.2c14.5,15.3,36.9,21.8,57.5,18.8c1.1-0.2,2.2-0.4,3.4-0.5c10.1-2.1,19.8-6.1,27.9-12.5
		c17.4-13.5,26.9-34.6,30.7-55.9c1-6.4,1.8-12.8,1.9-19.3c1.1-6.8-0.3-13.7-0.3-20.5c-0.6-4-1-8.1-1.7-12.1
		c-3.7-20.8-12.4-41.9-29.3-55.4C1493.4,257,1454.8,257.3,1431.4,278.2 M1197.6,285.4c-7.7,6.9-12.9,16.5-14.1,26.8
		c-0.1,2.1-0.1,4.1,0,6.2c1.2,11.4,7.5,22,16.7,28.8c6.4,5,14.1,8,22.1,9.5c1.1,0.2,2.3,0.4,3.5,0.6c4.2,0.1,8.4,0.1,12.7,0
		c1.1-0.2,2.3-0.5,3.5-0.6c7.9-1.5,15.7-4.5,22-9.5c12.7-9.4,20.1-26.7,15.2-42.1c-5.7-19.7-26.4-32.6-46.5-31.9
		C1219.9,272.5,1207.1,277.1,1197.6,285.4 M594,334.3c0.1,33.4,0,66.9,0,100.3c28.8,0,57.6,0,86.3,0c-0.1,10.4,1.3,21.8,8.5,29.9
		c5.3,6.5,13.6,9.5,21.6,11c1.5,0.2,3.1,0.3,4.6,0.6c2.8,0.1,5.5,0.1,8.3,0c1.5-0.3,3-0.5,4.5-0.6c9.5-1.6,19-6.2,24.2-14.6
		c5.1-8.3,5.2-19.4,0.5-27.8c-6-9.4-16.4-14.7-26.4-19c-37.1-16.2-77.4-27-110-52C606.9,354.5,599.6,344.8,594,334.3 M1186.2,366.6
		c0,6.8,0,13.7,0,20.5c11.7,0,23.3,0,35,0c-11.6,5.9-23.3,11.7-35,17.5c0,8.2,0,16.4,0,24.6c12.2-7.2,24.5-14.2,36.8-21.3
		c1.6,4.3,3.7,8.8,7.4,11.7c4.8,4,11.1,5.3,17.2,5.8c8.8,0.4,18.4-2,24.4-8.8c5-4.8,6.1-12.1,6.5-18.7c0.1-10.5,0-20.9,0-31.4
		C1247.7,366.6,1217,366.6,1186.2,366.6 M1209.4,6.4c20.2-7.2,44-3.3,60.6,10.3c17.9,13.8,26.7,37.8,23,60
		c-3.5,21-18.2,39.7-37.8,47.8c-13.4,5.8-28.8,6.5-42.8,2.4c-22.4-6.4-40.4-26.2-44.3-49.2c-0.2-1.1-0.4-2.3-0.5-3.4
		c-0.1-4-1.2-8-0.3-11.9C1168,37.5,1185.7,14.3,1209.4,6.4 M1224.3,295.4c8.9-1.6,18.7-0.7,26.2,4.6c5.6,3.7,9.4,10.4,8.5,17.2
		c-0.7,4.9-3.3,9.6-7.4,12.4c-7.8,5.9-18.3,7.4-27.7,5.3c-6.3-1.3-12.6-4.7-16.1-10.3c-3.9-5.7-3.5-13.7,0.3-19.3
		C1211.8,299.8,1218,296.6,1224.3,295.4 M1234.7,387.1c8.1,0,16.3,0,24.4,0c-0.2,4.6,0.2,10-3,13.8c-4.2,3.5-10.5,3.7-15.5,2.1
		C1234.6,400.3,1234.7,392.7,1234.7,387.1 M1206.6,502.1c16.9,0,33.9,0,50.8,0c0.4,7.3-0.1,15.4-5.2,21.2
		c-5.7,5.6-14.2,6.6-21.8,6.4c-6.5-0.1-13.8-1.5-18.3-6.6c-2.8-2.7-3.9-6.5-4.9-10.1C1207.1,509.3,1206.6,505.7,1206.6,502.1z"/>
	<g>
		<path class="st2" d="M2229.8,242.7v-67.5h8V235h25.5v7.6L2229.8,242.7L2229.8,242.7z"/>
		<path class="st2" d="M2280,242.7v-67.5h8v67.5H2280z"/>
		<path class="st2" d="M2311.4,242.7v-67.5h35.6v7.3h-27.6v19.4h27.6v7.5h-27.6v33.3L2311.4,242.7L2311.4,242.7z"/>
		<path class="st2" d="M2366.3,242.7v-67.5h35.6v7.3h-27.6v19.4h27.6v7.5h-27.6v25.9h27.6v7.5h-35.6V242.7z"/>
		<path class="st2" d="M2215.6,346.6l-21-48.5l-8.5,45.9h-7.8l13.7-70.1l23.6,55.8l23.6-55.8l13.7,70.1h-7.8l-8.6-45.9L2215.6,346.6
			z"/>
		<path class="st2" d="M2291.7,273.9l30.7,70.1h-8.7l-8.8-20.7h-26.4l-8.8,20.7h-8.7L2291.7,273.9z M2291.7,291.6l-10.7,24.8h21.5
			L2291.7,291.6z"/>
		<path class="st2" d="M2336.4,344v-67.5h12.9c9.6,0,16.3,0.5,20.3,1.5c3.9,1,7.4,2.6,10.3,4.9c3.9,3,6.8,6.8,8.8,11.4s3,10,3,16
			s-1,11.3-3,16c-2,4.6-4.9,8.4-8.8,11.4c-3,2.3-6.3,3.9-10.1,4.9s-9.6,1.4-17.6,1.4h-2.9L2336.4,344L2336.4,344z M2344.5,336.4h5.1
			c8.3,0,14-0.4,17.2-1.1s5.9-2,8-3.7c2.8-2.3,4.9-5.3,6.3-8.9c1.4-3.7,2.2-7.8,2.2-12.5s-0.7-8.9-2.1-12.5
			c-1.4-3.6-3.5-6.5-6.3-8.9c-2.1-1.8-4.8-3-8.1-3.8s-9-1.1-17.1-1.1h-5.1L2344.5,336.4L2344.5,336.4z"/>
		<path class="st2" d="M2411.9,344v-67.5h35.6v7.3h-27.6v19.4h27.6v7.5h-27.6v25.9h27.6v7.5h-35.6V344z"/>
		<path class="st2" d="M2213,447.9l-21-48.5l-8.5,45.9h-7.8l13.7-70.1L2213,431l23.6-55.8l13.7,70.1h-7.8l-8.6-45.9L2213,447.9z"/>
		<path class="st2" d="M2336.8,411.7c0,4.8-0.9,9.4-2.7,13.6c-1.8,4.3-4.4,8.1-7.8,11.4c-3.4,3.3-7.3,5.9-11.8,7.7
			c-4.4,1.8-9,2.7-13.8,2.7s-9.3-0.9-13.8-2.7c-4.4-1.8-8.3-4.4-11.7-7.7c-3.4-3.4-6.1-7.2-7.9-11.4c-1.8-4.3-2.7-8.8-2.7-13.6
			c0-4.8,0.9-9.4,2.7-13.7c1.8-4.3,4.4-8.1,7.9-11.5c3.4-3.3,7.3-5.8,11.7-7.6c4.4-1.8,9-2.7,13.8-2.7s9.4,0.9,13.9,2.7
			c4.4,1.8,8.4,4.3,11.7,7.6c3.4,3.3,6,7.1,7.8,11.4C2335.9,402.3,2336.8,406.8,2336.8,411.7z M2300.7,439.5c3.7,0,7.2-0.7,10.5-2.1
			s6.3-3.4,9-6.1c2.6-2.6,4.7-5.6,6-9c1.4-3.3,2.1-6.9,2.1-10.6c0-3.8-0.7-7.4-2.1-10.8c-1.4-3.4-3.4-6.4-6-9s-5.6-4.6-9-6
			c-3.3-1.4-6.9-2.1-10.6-2.1c-3.7,0-7.3,0.7-10.6,2.1c-3.4,1.4-6.3,3.4-8.9,6c-2.6,2.7-4.7,5.7-6,9.1c-1.4,3.4-2.1,7-2.1,10.7
			c0,3.8,0.7,7.3,2,10.6c1.4,3.3,3.4,6.3,6.1,9c2.7,2.7,5.7,4.7,9,6.1C2293.5,438.8,2297,439.5,2300.7,439.5z"/>
		<path class="st2" d="M2356.9,445.3v-67.5h15.9c4.5,0,7.8,0.3,9.9,0.8c2.1,0.5,4,1.4,5.6,2.6c2,1.6,3.6,3.7,4.7,6.3
			c1.1,2.6,1.7,5.5,1.7,8.7c0,5.5-1.5,9.7-4.6,12.6s-7.6,4.3-13.6,4.3h-1.4l25.8,32.2h-10.2l-24.8-32.2h-1.2v32.2H2356.9z
			 M2364.8,384.6v22.6h6.1c6.3,0,10.5-0.8,12.6-2.4s3.2-4.4,3.2-8.5c0-4.3-1.1-7.4-3.3-9.1s-6.3-2.6-12.5-2.6H2364.8z"/>
		<path class="st2" d="M2414.5,445.3v-67.5h35.6v7.3h-27.6v19.4h27.6v7.5h-27.6v25.9h27.6v7.5h-35.6V445.3z"/>
	</g>
</g>
</svg>
